# xmcd
#
# Track frame offsets:
#	150
#	13355
#	29308
#	44977
#	61114
#	74705
#	95640
#	112220
#	126482
#	142156
#	154551
#	169297
#	191136
#
# Disc length: 2764 seconds
#
# Revision: 1
# Processed by: cddbd v1.5.1PL2 Copyright (c) Steve Scherf et al.
# Submitted via: EasyCDDAExtractor 8.2.2.1
#
DISCID=d40aca0d
DTITLE=Ray Scott - My Kind Of Music
DYEAR=2005
DGENRE=Country
TTITLE0=Gone Either Way
TTITLE1=Makin' My Way
TTITLE2=Different Kind of Cowboy
TTITLE3=Walls
TTITLE4=My Kind Of Music
TTITLE5=Plowboy
TTITLE6=I Didn't Come Here To Talk
TTITLE7=Dirty Shirt
TTITLE8=Time
TTITLE9=Rats Don't Race
TTITLE10=Fly With An Angel
TTITLE11=Gypsy
TTITLE12=Bear With Me Lord
EXTD=
EXTT0=
EXTT1=
EXTT2=
EXTT3=
EXTT4=
EXTT5=
EXTT6=
EXTT7=
EXTT8=
EXTT9=
EXTT10=
EXTT11=
EXTT12=
PLAYORDER=
